<svg xmlns="http://www.w3.org/2000/svg" viewBox="0 0 40.71 8.54"><path fill="#447aff" d="M.5 6.14V.5h1.88c.77 0 1.37.1 1.82.34.45.24.8.59 1.06 1a2.83 2.83 0 01-1.98 4.24c-.19.06-.53.06-1.03.06H.53zM2.3 1.2h-.98v4.21h1.06c.4 0 .71-.03.92-.08l.56-.21c.16-.08.3-.19.42-.32a2.12 2.12 0 00.59-1.53 1.93 1.93 0 00-1.14-1.85l-.53-.16-.87-.06zm7.49 3.13H7.14c.03.37.16.66.37.87.21.21.5.32.85.32.47 0 .92-.16 1.32-.45v.71a2.46 2.46 0 01-1.43.43c-.42 0-.74-.11-1-.27a1.85 1.85 0 01-.61-.69 2.12 2.12 0 01-.21-1c0-.56.16-1 .47-1.38a1.59 1.59 0 011.25-.53c.5 0 .9.19 1.19.53.26.35.42.8.42 1.38v.1zM7.14 3.9h1.9c-.02-.29-.1-.53-.26-.68a.86.86 0 00-.63-.24.88.88 0 00-.67.26c-.15.13-.26.37-.31.66zM17.86.5h.79L16.4 6.16h-.16L14.4 1.58l-1.85 4.58h-.19L10.05.5h.8l1.58 3.89L14 .5h.77l1.59 3.89zm2.38 1.93c.55 0 1.06.16 1.4.53a1.85 1.85 0 01.58 1.38c0 .53-.18.98-.55 1.32a2.01 2.01 0 01-1.43.56c-.56 0-1.06-.19-1.4-.53a1.8 1.8 0 01-.59-1.35 1.92 1.92 0 012.01-1.9zm-.06.66c-.34 0-.63.1-.87.35-.21.24-.32.53-.32.87 0 .37.11.66.35.87.24.24.53.35.9.35a1.2 1.2 0 001.24-1.22c0-.34-.13-.63-.37-.87a1.26 1.26 0 00-.92-.35zm5.64 2.2V6c-.37.14-.74.22-1.08.22-.59 0-1.06-.19-1.4-.53a1.85 1.85 0 01-.54-1.38c0-.58.19-1.06.53-1.43.32-.34.8-.53 1.33-.53a2.22 2.22 0 011.05.27v.79a1.96 1.96 0 00-1-.37 1.06 1.06 0 00-.82.34c-.21.27-.32.53-.32.9s.1.7.35.9c.23.24.52.35.92.35.27 0 .61-.08.98-.27zm1.61-2.86v.85l.06-.05c.34-.59.71-.88 1.06-.88.26 0 .58.13.87.43l-.4.63c-.26-.24-.47-.34-.69-.34-.26 0-.45.1-.63.34a1.3 1.3 0 00-.27.8v1.95h-.71V2.43h.74zm4.85 1.48v1.6c0 .12.05.18.13.18s.21-.08.42-.22v.45a2.38 2.38 0 01-.42.24l-.32.05c-.32 0-.5-.13-.53-.37a1.59 1.59 0 01-1 .37.87.87 0 01-.93-.9c0-.26.08-.44.27-.63.15-.18.4-.34.71-.45l.95-.32v-.2c0-.43-.24-.67-.69-.67-.4 0-.79.21-1.16.63v-.79c.26-.37.69-.53 1.24-.53.4 0 .72.1.96.32l.2.26c.09.11.11.24.14.35zm-.72 1.51V4.31l-.53.19c-.24.1-.4.2-.53.31a.53.53 0 00-.13.37c0 .16.05.27.16.37.08.1.21.16.37.16a1 1 0 00.66-.29zm4.69-.13V6c-.35.14-.72.22-1.06.22-.59 0-1.06-.19-1.4-.53a1.85 1.85 0 01-.53-1.38c0-.58.18-1.06.52-1.43.32-.34.8-.53 1.33-.53a2.22 2.22 0 011.06.27v.79a1.96 1.96 0 00-.98-.4 1.06 1.06 0 00-.82.35c-.22.26-.32.53-.32.9s.1.69.34.9c.21.23.53.34.93.34.26 0 .6-.08.98-.26zm3.14-2.86h.82l-2.64 5.61h-.8l1.25-2.7-1.43-2.9h.82l1 2.1z"/></svg>