<svg xmlns="http://www.w3.org/2000/svg" fill="none" viewBox="0 0 702.9 702.9">
  <g fill-opacity=".3" fill-rule="evenodd" clip-rule="evenodd">
    <path fill="url(#paint0_linear)" d="M347 541.5c-.3-2.3 18.2-140 154-218.5 162.9-94 316.8-3.5 319 .2l33.3-57.1L880 452.9l-175.7 60.8 39.4-65.9c-2.6-1.5-81.7-48.4-170 1.4-58 32.6-76.8 93-77.4 94.7L423.8 481z" transform="translate(-275.4 -266.1)"/>
    <path fill="url(#paint1_linear)" d="M866.1 356.2c2.2.8 112.2 85.7 112.2 242.5 0 188.2-155.3 276.2-159.6 276.2l32.8 57.4-175.2-70.2 35.2-182.5 37.3 67c2.7-1.5 82.8-46.5 83.9-148 .7-66.4-42.2-113-43.4-114.3l90.8-31.4z" transform="translate(-275.4 -266.1)"/>
    <path fill="url(#paint2_linear)" d="M767 898.4c-1.7 1.4-130.3 54.3-266-24.1-163-94.1-161.6-272.7-159.4-276.4l-66.2-.3L423.8 481l140.5 121.8-76.8-1.3c.1 3-1 95 86.3 146.7 57.2 33.8 118.9 20 120.7 19.6l-18.2 94.3 90.8 36.3z" transform="translate(-275.4 -266.1)"/>
  </g>
  <defs id="defs31">
    <linearGradient id="paint0_linear" x1="437.3" x2="1069.2" y1="471.8" y2="530.6" gradientUnits="userSpaceOnUse">
      <stop id="stop16" stop-color="#2945FF"/>
      <stop id="stop18" offset="1" stop-color="#fff"/>
    </linearGradient>
    <linearGradient id="paint1_linear" x1="881.3" x2="514.4" y1="469.2" y2="987" gradientUnits="userSpaceOnUse">
      <stop id="stop21" stop-color="#2945FF"/>
      <stop id="stop23" offset="1" stop-color="#fff"/>
    </linearGradient>
    <linearGradient id="paint2_linear" x1="661.6" x2="396.6" y1="855" y2="278.3" gradientUnits="userSpaceOnUse">
      <stop id="stop26" stop-color="#2945FF"/>
      <stop id="stop28" offset="1" stop-color="#fff"/>
    </linearGradient>
  </defs>
</svg>
